<svg xmlns="http://www.w3.org/2000/svg" width="1080.011" height="523.197" viewBox="0 0 1012.51 490.497" id="svg2" version="1.1"><g id="layer1" transform="translate(1767.35 -628.212)"><path style="fill:#000" d="M-1687.197 1105.356c-6.873-4.67-9.635-9.763-7.968-14.69 2.416-7.138 5.961-10.673 16.43-16.38 5.699-3.106 11.382-6.776 12.631-8.156 1.249-1.38 2.81-2.508 3.47-2.508.659 0 8.306-3.913 16.993-8.695 20.004-11.012 32.378-17.56 42.67-22.583 4.469-2.18 8.969-4.478 10-5.105 1.853-1.127 8.111-4.162 31.25-15.155 10.319-4.902 29.99-13.872 41.875-19.095 2.063-.906 8.25-3.74 13.75-6.298s11.125-5.084 12.5-5.613c1.375-.529 9.25-3.763 17.5-7.186 8.25-3.424 18.375-7.49 22.5-9.035 4.125-1.546 11.156-4.37 15.625-6.275 4.469-1.906 10.375-4.169 13.125-5.028 2.75-.86 9.781-3.392 15.625-5.628 5.844-2.235 13.156-4.918 16.25-5.962a637.455 637.455 0 0 0 9.375-3.246c2.063-.741 17.25-5.755 33.75-11.143 41.278-13.478 45.612-14.426 42.354-9.261-1.247 1.977-23.82 10.204-28.19 10.274-1.148.019-3.679.821-5.625 1.784-4.59 2.269-11.869 4.5-14.685 4.5-1.22 0-3.711.79-5.536 1.757-1.825.967-6.13 2.698-9.568 3.847-7.905 2.643-9.922 3.44-17.012 6.726-3.169 1.468-6.713 2.67-7.875 2.67-1.161 0-3.733.838-5.715 1.863-4.452 2.302-22.417 8.099-25.167 8.12-1.11.01-3.45 1.142-5.197 2.517-1.748 1.375-4.315 2.5-5.704 2.5-1.39 0-3.27.713-4.178 1.585-.909.871-5.027 2.623-9.152 3.893-4.125 1.27-11.156 4.008-15.624 6.085-4.469 2.077-11.5 4.88-15.625 6.23-9.262 3.027-18.14 6.953-20.626 9.122-1.031.899-5.71 3.075-10.397 4.836-4.687 1.76-9.948 4.322-11.69 5.692-1.741 1.37-5.219 2.856-7.727 3.301-2.509.445-6.44 1.943-8.735 3.329-2.296 1.385-9.89 5.26-16.875 8.61-6.986 3.35-16.479 8.055-21.096 10.454-4.617 2.4-9.179 4.363-10.138 4.363-.959 0-3.815 1.406-6.348 3.125-2.533 1.718-5.47 3.125-6.527 3.125-1.057 0-4.283 1.935-7.17 4.3-2.887 2.366-6.847 4.591-8.801 4.946-1.954.354-4.512 1.512-5.685 2.574-1.173 1.061-2.661 1.93-3.307 1.93-.645 0-3.414 1.535-6.151 3.412-5.734 3.93-8.703 5.656-19.395 11.28-4.253 2.237-9.402 5.471-11.441 7.187-2.04 1.717-4.384 3.12-5.21 3.12-.825 0-2.929 1.548-4.675 3.438-1.745 1.89-5.246 5.312-7.778 7.602-5.14 4.648-5.685 7.349-2.324 11.499 2.009 2.481 3.598 2.856 13.402 3.157 11.173.343 15.629 2.356 7.836 3.541-14.708 2.236-19.205 2.002-23.994-1.252zm383.61-189.224c-2.442-2.7-1.539-3.406 5.735-4.487 3.028-.45 6.756-1.599 8.285-2.552 2.546-1.59 11.693-4.224 22.942-6.609 2.46-.521 5.094-1.332 5.854-1.802.76-.47 3.811-1.364 6.779-1.986 2.968-.622 8.49-2.062 12.271-3.199 3.781-1.137 9.969-2.828 13.75-3.758 3.781-.929 13.328-3.417 21.214-5.528 7.887-2.112 15.62-3.84 17.188-3.84 4.389 0 3.433 3.435-1.214 4.364-2.235.447-6.693 1.648-9.907 2.669-4.801 1.525-6.3 1.57-8.406.256-2.068-1.292-2.868-1.295-4.146-.017-1.277 1.277-1.223 1.835.282 2.89 1.477 1.035 1.28 1.178-.951.688-1.8-.394-3.252.13-4.025 1.454-.665 1.14-1.226 1.642-1.247 1.117-.021-.524-2.01-.13-4.419.876-2.409 1.007-7.893 2.215-12.187 2.684-4.294.47-9.235 1.575-10.98 2.457-2.96 1.496-7.462 2.597-23.077 5.647-3.437.671-7.656 1.99-9.375 2.931-2.942 1.611-11.469 4.76-18.971 7.006-2.534.759-3.844.452-5.394-1.26zm78.741-20.831c2.439-1.943 2.423-1.973-.625-1.228-1.719.42-3.58.772-4.136.782-.556.01-.664.58-.239 1.267 1.046 1.692 2.053 1.526 5-.821zm40.06-12.012c.727-1.892 12.858-7.167 16.485-7.167 1.07 0 7.348-1.737 13.95-3.86 11.659-3.747 24.944-6.964 33.88-8.203 2.406-.333 6.063-1.358 8.125-2.277 2.063-.919 9.094-2.885 15.625-4.369 13.387-3.041 20.43-4.842 25-6.39 1.719-.583 7.344-1.986 12.5-3.118s16.125-3.63 24.375-5.55 17.25-3.849 20-4.287c2.75-.439 6.406-1.345 8.125-2.015 1.719-.669 9.313-2.57 16.875-4.225 7.563-1.655 17.125-3.878 21.25-4.94 4.125-1.063 17.625-4.17 30-6.905 12.375-2.736 30.375-6.717 40-8.848 24.482-5.42 47.736-11.063 54.375-13.196 3.094-.994 11.813-3.551 19.375-5.683 17.023-4.799 26.609-8.496 41.934-16.174 17.333-8.684 18.902-14.204 5.203-18.308-10.514-3.15-24.317-2.801-33.097.838-6.534 2.708-7.488 2.803-12.273 1.224-10.6-3.498-15.595-10.325-14.53-19.859.402-3.603 3.672-11.764 8.807-21.98 9.687-19.27 9.886-19.839 8.22-23.494-1.435-3.151-7.77-6.482-10.404-5.472-1.492.573-5.424 6.911-11.741 18.93-4.724 8.984-19.222 29.24-24.386 34.07-3.108 2.906-9.383 8.11-13.945 11.562-6.688 5.062-9.246 6.279-13.2 6.279-9.887 0-10.56-8.66-1.718-22.087 2.34-3.554 4.255-6.826 4.255-7.271 0-.827 11.055-13.98 15.693-18.67 5.587-5.651 18.1-14.472 20.53-14.472 2.16 0 1.42 3.362-1.535 6.984-7.157 8.77-21.892 23.406-24.9 24.733-7.462 3.292-18.181 21.304-15.378 25.84 1.548 2.504 9.042.366 15.951-4.553 13.875-9.878 27.457-27.215 39.2-50.038 6.727-13.072 6.917-16.542 1.148-20.942-2.36-1.8-4.638-4.37-5.064-5.711-2.086-6.574 8.725-15.64 15.156-12.71 4.022 1.832 4.717 6.106 2.329 14.32-1.126 3.874-1.69 7.622-1.253 8.33.436.706 2.712 2.086 5.056 3.065 5.56 2.324 9.411 8.572 8.446 13.704-.398 2.12-3.976 10.04-7.951 17.603-8.978 17.081-10.514 22.384-8.377 28.927 2.909 8.911 15.89 11.963 22.894 5.382l2.949-2.77 13.49 2.132c7.42 1.174 15.321 2.436 17.558 2.806 4.862.804 10.308 6.743 10.308 11.242 0 4.297-5.668 9.307-16.618 14.691-10.078 4.956-24.258 10.411-30.882 11.88-2.406.535-9.156 2.42-15 4.19-5.844 1.77-15.969 4.405-22.5 5.856-6.531 1.45-14.969 3.538-18.75 4.637a338.77 338.77 0 0 1-29.375 7.161c-4.812.952-12.969 2.928-18.125 4.392-13.298 3.776-29.084 7.526-40 9.502-11.899 2.154-18.24 3.57-23.75 5.302-2.406.756-6.906 2.04-10 2.852-3.094.813-6.75 1.924-8.125 2.47-3.997 1.585-13.189 3.565-20.625 4.442-3.781.446-7.538 1.346-8.35 2-.81.655-4.185 1.4-7.5 1.655-3.313.256-7.817 1.368-10.008 2.472-2.19 1.104-8.247 2.485-13.458 3.07-5.212.584-10.214 1.675-11.115 2.423-.901.748-5.251 1.877-9.666 2.508-4.416.631-10.278 1.981-13.028 3-10.434 3.867-31.485 8.82-33.765 7.945-.91-.35-1.963.174-2.342 1.162-.38.987-1.933 1.796-3.452 1.796-1.52 0-4.49.548-6.602 1.218-2.112.67-7.214 2.028-11.339 3.018-4.125.99-12.562 3.326-18.75 5.192-15.917 4.8-17.054 4.993-16.19 2.74zm381.815-129.667c0-.688-.596-1.25-1.324-1.25-.728 0-.976.562-.551 1.25.425.687 1.02 1.25 1.324 1.25.303 0 .551-.563.551-1.25zm-27.5-83.061c0-3.465-2.67-4.788-6.625-3.284-4.535 1.724-6.282 4.5-4.696 7.461 2.548 4.761 5.405 5.402 8.509 1.91 1.546-1.741 2.812-4.48 2.812-6.087zm-921.041 140.903c-4.617-4.392-5.209-5.6-5.209-10.621 0-7.962 3.634-16.694 14.191-34.096 3.337-5.5 6.458-10.282 6.936-10.625.478-.344 4.094-5.125 8.036-10.625 12.037-16.798 14.254-19.503 28.091-34.272 19.544-20.861 29.709-30.348 45.516-42.48 14.165-10.87 34.052-22.647 38.156-22.596 3.102.04-1.666 3.672-12.813 9.76-4.819 2.631-11.808 6.973-15.531 9.648-3.724 2.675-8.327 5.725-10.23 6.777-1.904 1.052-5.57 3.881-8.146 6.288-2.577 2.406-5.851 5.218-7.277 6.25-5.698 4.122-44.223 45.275-47.977 51.25-1.08 1.718-4.1 5.737-6.713 8.929-6.13 7.491-13.489 18.197-13.489 19.622 0 .611-1.085 2.49-2.41 4.176-5.49 6.978-12.843 22.97-13.503 29.363-.625 6.061-.396 6.793 3.28 10.47 3.867 3.866 4.161 3.94 13.605 3.464 14.514-.732 24.785-5.896 38.278-19.247 13.355-13.214 21.405-23.837 48.904-64.535 10.083-14.923 19.124-27.79 20.09-28.59.966-.802 1.756-1.944 1.756-2.538 0-.594 1.983-4.04 4.407-7.66 2.423-3.618 6.405-9.575 8.848-13.236 2.443-3.661 5.581-10.13 6.973-14.375 1.392-4.245 3.171-8.117 3.953-8.604 3.06-1.904 3.185 1.381.379 9.95-2.707 8.264-4.909 11.937-15.185 25.332-2.063 2.689-6.281 8.602-9.375 13.14-3.094 4.539-7.448 10.606-9.675 13.483-2.228 2.877-4.056 5.701-4.063 6.276-.012 1.03-5.392 9.107-10.958 16.455-4.392 5.796-6.603 9.085-10.027 14.912-1.184 2.014-4.139 5.951-6.568 8.75-2.428 2.798-5.924 7.338-7.768 10.088-4.298 6.41-26.472 29.619-32.191 33.693-9.317 6.639-17.747 9.818-27.604 10.41l-9.479.569-5.208-4.955zm761.16-2.769c-.9-.556-1.127-1.325-.505-1.71.622-.384 1.867-.243 2.767.313.9.556 1.127 1.326.505 1.71-.622.384-1.867.244-2.767-.313zm-660.075-17.491c-3.556-6.644.78-16.12 6.582-14.39 1.512.45 3.802 1.829 5.089 3.063 2.283 2.19 2.273 2.28-.41 3.715-1.513.81-3.509 1.181-4.436.825-1.88-.721-4.814 2.093-3.525 3.382 1.317 1.317 6.248.953 10.018-.74 3.755-1.686 14.486-11.125 25.203-22.168 10.426-10.743 13.98-20.228 18.27-48.77.981-6.53 2.974-16.656 4.428-22.5 3.404-13.68 6.244-34.06 4.943-35.464-.556-.6-.733-1.814-.393-2.7.783-2.041-2.264-7.998-5.666-11.077-2.349-2.126-3.316-2.219-9.711-.935-13.96 2.804-17.433.775-4.908-2.866 13.064-3.798 19.891-1.479 23.705 8.052 3.095 7.736 2.456 16.793-2.892 40.945-2.7 12.194-6.175 29.483-7.724 38.42-4.123 23.79-6.946 29.265-22.755 44.11-4.182 3.928-8.867 8.454-10.411 10.06-9.835 10.219-22.386 14.684-25.407 9.038zm519.984-1.02c.048-3.82 4.069-7.5 14.015-12.828 10.963-5.874 19.678-14.906 28.329-29.36 12.899-21.55 15.023-29.98 11.97-47.491-1.05-6.022-1.589-12.144-1.197-13.604.393-1.46 2.99-7.171 5.773-12.692 4.167-8.266 6.23-10.855 11.683-14.666 8.06-5.633 11.043-6.81 23.083-9.114 10.712-2.05 12.778-1.707 15.025 2.49 1.385 2.59 1.238 3.758-1.06 8.417-3.392 6.88-7.235 11.866-8.314 10.787-.46-.46.367-2.128 1.838-3.706 2.941-3.158 4.284-7.111 3.612-10.634-.362-1.9-1.861-2.349-8.874-2.656-7.257-.318-9.53.155-16.237 3.381-7.67 3.69-11.6 6.74-16.549 12.842-7.255 8.947-8.655 15.047-6.067 26.439 2.429 10.694 1.878 27.38-1.08 32.708-1.146 2.062-3.813 7.2-5.928 11.419-2.115 4.218-5.523 9.78-7.573 12.36-3.466 4.361-4.952 9.341-2.79 9.35.87.003 9.765-4.064 14.063-6.429 3.034-1.67 31.482-15.635 36.25-17.795 2.406-1.09 11.406-5.647 20-10.127s16.328-8.147 17.187-8.15c2.36-.005 1.877 2.23-1.011 4.684-9.262 7.87-12.792 12.916-10.17 14.537 1.159.716 18.833-5.279 25.044-8.494 2.297-1.189 4.986-1.85 5.976-1.47 1.496.574 1.353 1.566-.85 5.885-1.878 3.682-2.235 5.45-1.224 6.075 1.572.972 13.874-.61 18.798-2.417 1.719-.63 5.094-1.513 7.5-1.96 2.406-.446 6.625-1.82 9.375-3.052s5.844-2.591 6.875-3.021c9.753-4.062 14.543-8.116 18.407-15.582 4.772-9.219 22.787-36.454 28.236-42.688 8.88-10.159 19.607-15.71 19.607-10.145 0 2.56-9.18 21.607-11.655 24.184-.838.872-4.242 5.425-7.565 10.118-6.644 9.383-13.258 15.932-22.578 22.354-7.03 4.844-9.388 9.965-9.81 21.298-.154 4.136-.797 7.002-1.517 6.753-1.243-.429-1.346-3.122-.489-12.687.4-4.463.13-5.046-2.515-5.422-1.63-.232-3.308.114-3.73.77-1.04 1.618-10.863 6.527-13.06 6.527-.974 0-4.935 1.4-8.804 3.11-8.42 3.724-23.064 7.222-27.902 6.665-2.382-.274-4.02-1.53-5.188-3.976-1.562-3.274-2.115-3.51-6.554-2.8-4.342.694-8.184 2.073-17.028 6.112-4.299 1.964-6.866-.913-6.378-7.148.352-4.501.11-5.038-2.102-4.655-2.202.382-32.67 15.185-48.125 23.383-3.094 1.641-10.513 5.282-16.488 8.092-5.974 2.81-14.693 7.894-19.374 11.298l-14.513 10.554c-6.753 4.912-8.387 5.338-8.347 2.177zm224.668-83.765c4.698-4.71 11.057-12.947 14.366-18.607 6.164-10.541 6.769-12.28 4.714-13.55-2.101-1.298-5.812 1.549-10.824 8.305a2711.06 2711.06 0 0 1-7.952 10.665c-7.267 9.67-13.75 19.302-13.75 20.429 0 3.506 5.892.333 13.446-7.242zm-679.972 81.265c-.783-3.021.157-5.312 2.181-5.312 2.375 0 3.397 2.077 2.466 5.01-.975 3.074-3.879 3.262-4.647.302zm188.918-10.665c-1.091-.837-2.658-2.788-3.482-4.335-1.751-3.288-4.192-3.61-6.478-.855-2.074 2.498-8.692 5.95-9.624 5.018-1.284-1.284 3.668-5.614 10.064-8.802 5.148-2.565 6.873-4.323 9.536-9.715 1.788-3.62 4.931-8.93 6.984-11.8 5.489-7.67 16.858-13.48 16.858-8.615 0 4.602-3.458 9.506-13.361 18.952-9.478 9.041-10.633 10.613-9.91 13.494 1.07 4.26 6.125 4.374 14.25.318 3.243-1.619 8.708-3.969 12.146-5.222 8.538-3.114 27.707-14.5 33.507-19.903 2.616-2.438 5.306-4.432 5.977-4.432 2.438 0 2.474 3.517.086 8.267-1.344 2.672-2.797 8.271-3.23 12.443-.692 6.666-.473 7.87 1.805 9.932 2.336 2.114 3.174 2.192 8.474.783 9.879-2.625 18.218-8.003 19.1-12.32 2.057-10.053 14.006-24.79 23.225-28.642 5.156-2.154 6.682-1.443 6.682 3.116 0 5.124-5.963 13.565-16.149 22.861-7.948 7.254-8.917 8.602-7.75 10.783 1.102 2.06 2.48 2.452 7.929 2.26 6.805-.238 9.602-1.41 17.4-7.296 2.504-1.89 4.955-3.437 5.444-3.437 3.237 0 18.126-16.93 18.126-20.611 0-2.874 3.806-9.143 6.08-10.016 4.146-1.591 4.598 1.893 1.097 8.457l-3.444 6.459 2.545 2.543c2.143 2.143 4.126 2.537 12.6 2.508l10.057-.036-.808 3.16c-.444 1.739-.907 4.567-1.03 6.286-.25 3.5 1.375 3.65 11.376 1.047 2.941-.766 5.67-1.07 6.063-.678 1.633 1.633-1.261 3.228-9.542 5.257-11.926 2.923-14.029 1.164-11.119-9.295.343-1.23-.678-1.887-3.25-2.09-2.063-.163-7.755-.638-12.65-1.056-9.574-.818-10.15-.548-21.485 10.06-1.54 1.441-7.099 4.957-12.354 7.813-11.151 6.06-17.3 6.66-25.824 2.517l-5.505-2.674-7.853 3.924c-8.009 4.002-14.501 4.924-18.732 2.66-2.863-1.532-4.956-8.509-4.965-16.548-.01-4.881-.408-5.937-2.257-5.937-1.238 0-2.835.585-3.55 1.3-2.946 2.945-31.89 17.45-34.822 17.45-.828 0-4.15 1.406-7.383 3.125-6.593 3.505-8.012 3.704-10.854 1.522zm108.308-26.079c5.604-5.3 6.8-7.168 6.8-10.625 0-2.306-.422-4.154-.938-4.107-1.889.174-15.312 16.771-15.312 18.933 0 3.616 2.236 2.622 9.45-4.2zm-97.114 2.254c1.53-1.843.675-3.322-1.92-3.322-.916 0-1.666 1.125-1.666 2.5 0 2.884 1.575 3.245 3.586.822zm-89.856 17.9c-3.482-4.89-2.594-10.742 3.367-22.209 4.72-9.078 21.82-35 26.004-39.418 1.417-1.496 4.81-5.533 7.54-8.97 18.88-23.774 55.299-55.151 65.618-56.535 4.135-.555 4.937-.177 7.619 3.582 6.115 8.574 2.966 20.526-10 37.953a1749.045 1749.045 0 0 0-7.898 10.701c-4.543 6.228-30.255 32.424-31.825 32.424-.71 0-2.816 2.41-4.678 5.355-1.861 2.945-5.035 6.461-7.052 7.812-2.017 1.352-3.67 2.87-3.671 3.375 0 .504-4.926 5.973-10.942 12.152-8.88 9.123-12.401 11.83-18.725 14.396-10.01 4.061-12.084 3.978-15.357-.618zm17.181-3.359c3.701-1.718 17.32-14.925 30.227-29.316 5.055-5.635 5.2-6.032 4.399-12.074-.93-7.01-.844-7.133 9.995-14.285 5.259-3.47 7.493-6.404 15.313-20.107 5.035-8.824 9.155-16.794 9.155-17.71 0-3.128 1.515-5.621 3.415-5.621 4.348 0-2.573 16.646-13.743 33.054-1.846 2.71-3.072 5.212-2.725 5.559 1.137 1.137 19.116-20.541 20.895-25.195.464-1.213 2.185-2.716 3.823-3.339 5.767-2.192 12.572-20.748 9.628-26.25-2.953-5.518-13.79-2.318-25.129 7.42-23.219 19.941-30.665 27.602-47.99 49.376-12.418 15.606-16.736 21.609-25.176 35-3.751 5.95-7.998 16.982-7.998 20.775 0 6.195 6.148 7.244 15.911 2.713zm42.839-47.312c0-1.072-.572-1.596-1.27-1.164-.7.432-.947 1.31-.552 1.95 1.072 1.733 1.822 1.41 1.822-.786z" id="path3500"/></g></svg>