<?xml version="1.0" encoding="UTF-8" standalone="no"?>
<!-- Created with Inkscape (http://www.inkscape.org/) -->

<svg
   xmlns:dc="http://purl.org/dc/elements/1.1/"
   xmlns:cc="http://creativecommons.org/ns#"
   xmlns:rdf="http://www.w3.org/1999/02/22-rdf-syntax-ns#"
   xmlns:svg="http://www.w3.org/2000/svg"
   xmlns="http://www.w3.org/2000/svg"
   xmlns:sodipodi="http://sodipodi.sourceforge.net/DTD/sodipodi-0.dtd"
   xmlns:inkscape="http://www.inkscape.org/namespaces/inkscape"
   width="285.75278mm"
   height="138.42908mm"
   viewBox="0 0 1012.5098 490.49677"
   id="svg2"
   version="1.1"
   inkscape:version="0.91 r13725"
   sodipodi:docname="Firma de Benito Pérez Galdós.svg">
  <defs
     id="defs4" />
  <sodipodi:namedview
     id="base"
     pagecolor="#ffffff"
     bordercolor="#666666"
     borderopacity="1.0"
     inkscape:pageopacity="0.0"
     inkscape:pageshadow="2"
     inkscape:zoom="0.35"
     inkscape:cx="378.98548"
     inkscape:cy="259.79178"
     inkscape:document-units="px"
     inkscape:current-layer="layer1"
     showgrid="false"
     fit-margin-top="3"
     fit-margin-right="3"
     fit-margin-bottom="3"
     fit-margin-left="3"
     inkscape:window-width="1366"
     inkscape:window-height="705"
     inkscape:window-x="-8"
     inkscape:window-y="-8"
     inkscape:window-maximized="1" />
  <metadata
     id="metadata7">
    <rdf:RDF>
      <cc:Work
         rdf:about="">
        <dc:format>image/svg+xml</dc:format>
        <dc:type
           rdf:resource="http://purl.org/dc/dcmitype/StillImage" />
        <dc:title></dc:title>
      </cc:Work>
    </rdf:RDF>
  </metadata>
  <g
     inkscape:label="Capa 1"
     inkscape:groupmode="layer"
     id="layer1"
     transform="translate(1767.3508,-628.21179)">
    <path
       style="fill:#000000"
       d="m -1687.197,1105.3557 c -6.8727,-4.6701 -9.6352,-9.7625 -7.9682,-14.6888 2.4158,-7.139 5.9612,-10.6735 16.4306,-16.3804 5.6983,-3.1062 11.3821,-6.7764 12.6308,-8.1562 1.2486,-1.3797 2.8098,-2.5086 3.4691,-2.5086 0.6594,0 8.3066,-3.9127 16.9938,-8.695 20.0043,-11.0121 32.3776,-17.5606 42.6699,-22.5826 4.4688,-2.1805 8.9688,-4.4777 10,-5.1051 1.8534,-1.1274 8.1112,-4.1622 31.25,-15.155 10.3186,-4.9022 29.9891,-13.87184 41.875,-19.09485 2.0625,-0.90632 8.25,-3.74062 13.75,-6.29844 5.5,-2.55782 11.125,-5.0834 12.5,-5.61241 1.375,-0.52901 9.25,-3.76289 17.5,-7.1864 8.25,-3.4235 18.375,-7.48929 22.5,-9.03506 4.125,-1.54578 11.1563,-4.36967 15.625,-6.27532 4.4688,-1.90564 10.375,-4.1682 13.125,-5.02791 2.75,-0.8597 9.7813,-3.39204 15.625,-5.62741 5.8438,-2.23538 13.1563,-4.91852 16.25,-5.96254 3.0938,-1.04401 7.3125,-2.50455 9.375,-3.24563 2.0625,-0.74108 17.25,-5.7555 33.75,-11.14315 41.2781,-13.47827 45.6124,-14.42599 42.3543,-9.26084 -1.2471,1.97709 -23.8197,10.20369 -28.1905,10.27407 -1.1474,0.0185 -3.6787,0.82106 -5.625,1.78354 -4.5892,2.26938 -11.8684,4.50005 -14.6847,4.50005 -1.2201,0 -3.7114,0.79093 -5.5362,1.75765 -1.8249,0.9667 -6.1304,2.69788 -9.5679,3.84707 -7.9055,2.64289 -9.9216,3.4399 -17.0119,6.72538 -3.1691,1.46843 -6.7126,2.6699 -7.8746,2.6699 -1.1619,0 -3.7339,0.8384 -5.7155,1.8631 -4.4523,2.3024 -22.4167,8.0992 -25.1669,8.12094 -1.1104,0.009 -3.4492,1.14096 -5.1972,2.51596 -1.748,1.375 -4.3149,2.5 -5.7043,2.5 -1.3893,0 -3.2693,0.71322 -4.1778,1.58495 -0.9085,0.87172 -5.0268,2.62362 -9.1518,3.8931 -4.125,1.26949 -11.1559,4.0078 -15.6242,6.08514 -4.4683,2.07735 -11.4995,4.88046 -15.625,6.22916 -9.262,3.02794 -18.1395,6.95436 -20.6258,9.12251 -1.0312,0.89932 -5.7099,3.07549 -10.3971,4.83595 -4.6872,1.76047 -9.9474,4.32199 -11.6893,5.69219 -1.742,1.3702 -5.2195,2.8558 -7.7279,3.3013 -2.5084,0.4454 -6.4391,1.9434 -8.735,3.3288 -2.2958,1.3854 -9.8896,5.2601 -16.875,8.6104 -6.9854,3.3503 -16.4783,8.0545 -21.0955,10.4539 -4.6171,2.3994 -9.1792,4.3626 -10.138,4.3626 -0.9588,0 -3.8156,1.4062 -6.3483,3.125 -2.5327,1.7187 -5.4696,3.125 -6.5265,3.125 -1.0569,0 -4.2835,1.9353 -7.1702,4.3008 -2.8867,2.3654 -6.8473,4.5907 -8.8012,4.945 -1.954,0.3543 -4.5123,1.5127 -5.6853,2.5742 -1.1729,1.0615 -2.6608,1.93 -3.3065,1.93 -0.6456,0 -3.4138,1.5353 -6.1515,3.4118 -5.7337,3.93 -8.7023,5.6566 -19.3948,11.2802 -4.2531,2.2369 -9.4016,5.4713 -11.4413,7.1875 -2.0396,1.7163 -4.3837,3.1205 -5.2091,3.1205 -0.8255,0 -2.9292,1.5469 -4.675,3.4375 -1.7458,1.8906 -5.2461,5.3113 -7.7784,7.6015 -5.1393,4.6482 -5.6852,7.3489 -2.3244,11.4993 2.0093,2.4814 3.5986,2.8558 13.4019,3.1567 11.1732,0.343 15.6289,2.3567 7.8362,3.5414 -14.7083,2.2362 -19.2052,2.0015 -23.9938,-1.2524 z m 383.6107,-189.22329 c -2.443,-2.69954 -1.5396,-3.40654 5.7345,-4.48763 3.0282,-0.45005 6.7562,-1.59857 8.2844,-2.55227 2.5463,-1.58905 11.6937,-4.22382 22.9427,-6.60828 2.4593,-0.52129 5.0936,-1.33232 5.854,-1.80231 0.7605,-0.46999 3.8109,-1.36359 6.7787,-1.98579 2.9678,-0.62219 8.4898,-2.06179 12.271,-3.19911 3.7813,-1.13734 9.9688,-2.82823 13.75,-3.75754 3.7813,-0.92931 13.3276,-3.41724 21.214,-5.52873 7.8865,-2.11148 15.6209,-3.83906 17.1875,-3.83906 4.389,0 3.4335,3.43438 -1.214,4.3637 -2.2344,0.44678 -6.6921,1.64764 -9.9061,2.66858 -4.8018,1.52532 -6.3004,1.57092 -8.4063,0.25578 -2.0681,-1.29156 -2.8683,-1.29487 -4.1459,-0.0172 -1.2777,1.27767 -1.2234,1.8354 0.2813,2.88964 1.4777,1.03535 1.2804,1.17834 -0.9509,0.6892 -1.7998,-0.39454 -3.2516,0.13003 -4.0245,1.45406 -0.665,1.13919 -1.2262,1.64183 -1.2471,1.11698 -0.021,-0.52485 -2.0093,-0.13063 -4.4186,0.87606 -2.4094,1.00669 -7.8937,2.21435 -12.1875,2.68369 -4.2938,0.46935 -9.2347,1.57488 -10.9799,2.45674 -2.96,1.4958 -7.4618,2.59739 -23.077,5.64699 -3.4375,0.67133 -7.6562,1.99047 -9.375,2.93142 -2.9423,1.61084 -11.4688,4.75946 -18.9714,7.0057 -2.5333,0.75848 -3.8438,0.4522 -5.3939,-1.26061 z m 78.7403,-20.83169 c 2.4386,-1.94254 2.4232,-1.97269 -0.625,-1.22732 -1.7187,0.42029 -3.5801,0.77184 -4.1363,0.78123 -0.5562,0.01 -0.6636,0.57956 -0.2387,1.26706 1.0456,1.69185 2.0532,1.52643 5,-0.82097 z m 40.0607,-12.01152 c 0.7263,-1.89263 12.8574,-7.16751 16.4838,-7.16751 1.0708,0 7.3489,-1.7366 13.9512,-3.85911 11.6578,-3.74771 24.943,-6.96452 33.8793,-8.20332 2.4063,-0.33356 6.0625,-1.35826 8.125,-2.2771 2.0625,-0.91885 9.0938,-2.88476 15.625,-4.36872 13.3871,-3.04165 20.43,-4.842 25,-6.39069 1.7188,-0.58244 7.3438,-1.9854 12.5,-3.11769 5.1563,-1.13228 16.125,-3.62953 24.375,-5.54943 8.25,-1.91989 17.25,-3.84954 20,-4.2881 2.75,-0.43857 6.4063,-1.3449 8.125,-2.01407 1.7188,-0.66917 9.3125,-2.57072 16.875,-4.22567 7.5625,-1.65495 17.125,-3.8781 21.25,-4.94033 4.125,-1.06222 17.625,-4.16934 30,-6.90469 12.375,-2.73536 30.375,-6.71677 40,-8.84758 24.4823,-5.41997 47.73568,-11.06327 54.375,-13.19613 3.09375,-0.99386 11.8125,-3.55131 19.375,-5.68323 17.0225,-4.79875 26.60903,-8.49623 41.93411,-16.17385 17.33331,-8.68369 18.90185,-14.2036 5.20255,-18.30844 -10.51388,-3.15036 -24.31642,-2.80076 -33.09628,0.83829 -6.53455,2.70843 -7.48797,2.80354 -12.27294,1.22435 -10.60023,-3.49839 -15.59552,-10.32526 -14.53112,-19.85914 0.4022,-3.6026 3.67276,-11.7642 8.80805,-21.98036 9.6866,-19.27052 9.88535,-19.83858 8.2199,-23.49384 -1.43577,-3.15116 -7.76985,-6.48226 -10.40398,-5.47145 -1.49255,0.57274 -5.42407,6.91076 -11.74165,18.92876 -4.72319,8.98497 -19.2212,29.24092 -24.38572,34.07059 -3.10772,2.90624 -9.38313,8.10937 -13.94536,11.5625 -6.68777,5.06197 -9.24531,6.27844 -13.19994,6.27844 -9.88663,0 -10.56015,-8.65939 -1.71788,-22.08684 2.3404,-3.554 4.25526,-6.82606 4.25526,-7.27122 0,-0.82679 11.05487,-13.97892 15.69271,-18.66984 5.58713,-5.65107 18.10088,-14.4721 20.53049,-14.4721 2.1594,0 1.42013,3.362 -1.5357,6.98392 -7.1568,8.76959 -21.89167,23.40632 -24.89911,24.73325 -7.4623,3.29253 -18.18165,21.30369 -15.37838,25.83949 1.54821,2.50504 9.04205,0.36622 15.95124,-4.55266 13.87454,-9.87774 27.45675,-27.21479 39.20052,-50.03759 6.72623,-13.0717 6.91643,-16.54221 1.14773,-20.94222 -2.35978,-1.79988 -4.63876,-4.36978 -5.0644,-5.71088 -2.08649,-6.57392 8.72476,-15.64079 15.15592,-12.71055 4.02163,1.83237 4.71674,6.10642 2.32895,14.32011 -1.1263,3.87435 -1.69033,7.62269 -1.25342,8.32964 0.43692,0.70695 2.71237,2.08675 5.05655,3.06621 5.56035,2.32325 9.41107,8.57123 8.446,13.70398 -0.39838,2.11876 -3.97641,10.0398 -7.95119,17.6023 -8.97795,17.08165 -10.51359,22.38437 -8.3773,28.92773 2.90928,8.91097 15.88953,11.96223 22.89417,5.38172 l 2.94903,-2.77047 13.49059,2.13281 c 7.41984,1.17305 15.3207,2.43542 17.55749,2.80529 4.86243,0.80401 10.30811,6.74322 10.30811,11.24232 0,4.29645 -5.66753,9.30685 -16.61817,14.69138 -10.07799,4.95542 -24.25826,10.41065 -30.88183,11.88042 -2.40625,0.53394 -9.15625,2.41898 -15,4.18898 -5.84375,1.76999 -15.96875,4.40524 -22.5,5.8561 -6.53125,1.45086 -14.96875,3.53773 -18.75,4.63746 -9.83961,2.86175 -19.32476,5.17395 -29.375,7.16075 -4.8125,0.95138 -12.96875,2.92778 -18.125,4.392 -13.29761,3.77614 -29.08425,7.52628 -40,9.50208 -11.89905,2.15377 -18.23915,3.56905 -23.75,5.30159 -2.40625,0.7565 -6.90625,2.04017 -10,2.85262 -3.09375,0.81245 -6.75,1.92342 -8.125,2.46879 -3.9971,1.58544 -13.189,3.56528 -20.625,4.4424 -3.7812,0.44604 -7.5385,1.34645 -8.3494,2.00093 -0.8109,0.65448 -4.1859,1.39913 -7.5,1.6548 -3.3141,0.25566 -7.8178,1.36798 -10.0083,2.47183 -2.1905,1.10384 -8.2469,2.48519 -13.4586,3.06967 -5.2117,0.58446 -10.2134,1.67476 -11.1148,2.42287 -0.9014,0.74813 -5.2513,1.87676 -9.6664,2.5081 -4.4151,0.63133 -10.2775,1.98159 -13.0275,3.00055 -10.4344,3.86633 -31.4855,8.81924 -33.7654,7.94437 -0.909,-0.34883 -1.9628,0.17401 -2.3419,1.16185 -0.3791,0.98783 -1.9326,1.79607 -3.4522,1.79607 -1.5197,0 -4.4904,0.54826 -6.6017,1.21836 -2.1114,0.67009 -7.2138,2.02817 -11.3388,3.01793 -4.125,0.98976 -12.5625,3.32632 -18.75,5.19237 -15.9172,4.80035 -17.0542,4.9927 -16.1893,2.73885 z M -802.971,753.62168 c 0,-0.6875 -0.5957,-1.25 -1.32378,-1.25 -0.72807,0 -0.97612,0.5625 -0.55122,1.25 0.4249,0.6875 1.0206,1.25 1.32378,1.25 0.30317,0 0.55122,-0.5625 0.55122,-1.25 z m -27.5,-83.06097 c 0,-3.46459 -2.66949,-4.78797 -6.62473,-3.28419 -4.53493,1.72418 -6.28193,4.49967 -4.69668,7.46172 2.54811,4.7612 5.40507,5.40223 8.50891,1.9092 1.54687,-1.74085 2.8125,-4.47988 2.8125,-6.08673 z m -921.0412,140.90304 c -4.6168,-4.39186 -5.2088,-5.59888 -5.2088,-10.62087 0,-7.96166 3.6343,-16.69353 14.1913,-34.0962 3.3365,-5.5 6.4576,-10.28125 6.9359,-10.625 0.4783,-0.34375 4.0943,-5.125 8.0355,-10.625 12.0369,-16.7973 14.2543,-19.5025 28.0913,-34.27217 19.5438,-20.86095 29.7086,-30.34745 45.5165,-42.479 14.1649,-10.87067 34.0516,-22.6479 38.1551,-22.59604 3.1024,0.0393 -1.6658,3.67106 -12.8123,9.75887 -4.819,2.63192 -11.8081,6.97393 -15.5315,9.6489 -3.7234,2.67497 -8.327,5.7244 -10.2304,6.77651 -1.9034,1.05211 -5.5689,3.88167 -8.1456,6.28792 -2.5767,2.40625 -5.8512,5.21876 -7.2767,6.25001 -5.6981,4.12216 -44.2232,45.2754 -47.977,51.25 -1.0799,1.71875 -4.1006,5.73689 -6.7126,8.92919 -6.1296,7.49144 -13.4895,18.19729 -13.4895,19.6221 0,0.61136 -1.0849,2.49076 -2.4108,4.17644 -5.4888,6.9778 -12.8417,22.96885 -13.5017,29.36306 -0.6255,6.06096 -0.3963,6.79277 3.2796,10.46864 3.8667,3.86665 4.161,3.9416 13.605,3.46509 14.514,-0.73235 24.7846,-5.89666 38.2777,-19.247 13.3554,-13.21423 21.4052,-23.83694 48.9044,-64.53545 10.0832,-14.92311 19.1235,-27.78886 20.0895,-28.59056 0.966,-0.80169 1.7563,-1.94341 1.7563,-2.53714 0,-0.59374 1.983,-4.04049 4.4066,-7.65945 2.4236,-3.61896 6.4055,-9.57548 8.8487,-13.23671 2.4432,-3.66123 5.581,-10.12998 6.9728,-14.375 1.3919,-4.24502 3.1709,-8.11667 3.9534,-8.60367 3.06,-1.90454 3.185,1.38098 0.3784,9.94914 -2.7071,8.26493 -4.9084,11.93736 -15.1849,25.33294 -2.0625,2.68851 -6.2812,8.60153 -9.375,13.14004 -3.0937,4.5385 -7.4477,10.60566 -9.6754,13.48259 -2.2277,2.87691 -4.0558,5.7013 -4.0625,6.2764 -0.012,1.02934 -5.3916,9.10704 -10.9585,16.45435 -4.392,5.7967 -6.603,9.08491 -10.0269,14.91193 -1.1834,2.01406 -4.1387,5.95156 -6.5672,8.75 -2.4285,2.79843 -5.9243,7.33807 -7.7683,10.08807 -4.2979,6.40938 -26.4726,29.61909 -32.1912,33.69374 -9.3165,6.63827 -17.7465,9.81713 -27.6037,10.40908 l -9.4788,0.56922 -5.2087,-4.95497 z m 761.16056,-2.76829 c -0.89995,-0.5562 -1.12748,-1.32572 -0.50563,-1.71005 0.62185,-0.38432 1.86696,-0.2437 2.76691,0.3125 0.89995,0.5562 1.12749,1.32573 0.50564,1.71005 -0.62185,0.38433 -1.86697,0.2437 -2.76692,-0.3125 z m -660.07536,-17.4916 c -3.5555,-6.64346 0.7796,-16.12079 6.5824,-14.39049 1.5118,0.45078 3.8015,1.82933 5.0884,3.06346 2.283,2.1894 2.273,2.27962 -0.4102,3.71563 -1.5125,0.80945 -3.5086,1.1806 -4.4359,0.82477 -1.8801,-0.72145 -4.8133,2.09315 -3.5245,3.38197 1.3169,1.31696 6.2483,0.95267 10.0176,-0.74002 3.7551,-1.68632 14.4858,-11.12485 25.2036,-22.16862 10.4258,-10.74305 13.9789,-20.22793 18.269,-48.76888 0.9817,-6.53125 2.9746,-16.65625 4.4285,-22.5 3.4038,-13.68061 6.2441,-34.06064 4.9426,-35.46483 -0.5556,-0.5994 -0.7321,-1.81425 -0.3924,-2.69968 0.7833,-2.04122 -2.2637,-7.99835 -5.666,-11.07736 -2.3489,-2.12573 -3.3165,-2.21884 -9.7114,-0.93455 -13.9596,2.80349 -17.4331,0.77461 -4.9077,-2.8666 13.0638,-3.79776 19.8914,-1.47853 23.7048,8.05219 3.0955,7.73637 2.4559,16.79362 -2.8915,40.94543 -2.6998,12.19371 -6.1758,29.4829 -7.7246,38.4204 -4.1225,23.79009 -6.9462,29.26385 -22.755,44.11024 -4.1814,3.92688 -8.8665,8.4531 -10.4112,10.05829 -9.8347,10.21937 -22.3851,14.6843 -25.4065,9.03865 z m 519.9838,-1.01968 c 0.048,-3.81958 4.0692,-7.4999 14.015,-12.82863 10.9632,-5.87381 19.6777,-14.90511 28.329,-29.35887 12.899,-21.5501 15.0235,-29.97974 11.9697,-47.49178 -1.0502,-6.02237 -1.5885,-12.14417 -1.1962,-13.604 0.3924,-1.45982 2.9903,-7.17128 5.7732,-12.69211 4.1664,-8.26544 6.2292,-10.85509 11.6825,-14.6659 8.0603,-5.63269 11.0429,-6.81034 23.0832,-9.11402 10.712,-2.04955 12.778,-1.70706 15.0245,2.49069 1.3858,2.58928 1.2388,3.75719 -1.059,8.41679 -3.3923,6.87904 -7.2361,11.86555 -8.3149,10.7868 -0.4599,-0.4599 0.3672,-2.12781 1.8379,-3.70645 2.9414,-3.15726 4.2846,-7.11078 3.6126,-10.63366 -0.3625,-1.90015 -1.8615,-2.34885 -8.8742,-2.65629 -7.2567,-0.31813 -9.53,0.1553 -16.2371,3.38142 -7.67,3.68928 -11.6006,6.73943 -16.549,12.84184 -7.2551,8.94716 -8.655,15.04714 -6.0674,26.43873 2.4291,10.69382 1.878,27.37938 -1.0804,32.70794 -1.1451,2.0625 -3.8124,7.20119 -5.9274,11.41931 -2.1149,4.21812 -5.5226,9.77984 -7.5726,12.35938 -3.4664,4.36191 -4.9522,9.34177 -2.7897,9.34979 0.8697,0.004 9.7647,-4.06268 14.0625,-6.42795 3.0338,-1.66963 31.4822,-15.63479 36.25,-17.79491 2.4063,-1.0902 11.4063,-5.64748 20,-10.12731 8.5938,-4.47982 16.3281,-8.14697 17.1875,-8.14922 2.3598,-0.006 1.8769,2.22878 -1.0119,4.68341 -9.2618,7.86986 -12.7917,12.91615 -10.1689,14.53715 1.158,0.71564 18.83251,-5.27919 25.04363,-8.49426 2.29642,-1.1887 4.98538,-1.85042 5.97547,-1.47049 1.49663,0.57431 1.35335,1.56662 -0.84972,5.88501 -1.8784,3.68198 -2.23479,5.45076 -1.22412,6.0754 1.57215,0.97165 13.87422,-0.61025 18.79804,-2.41719 1.71875,-0.63075 5.09375,-1.51232 7.5,-1.95906 2.40625,-0.44672 6.625,-1.82037 9.375,-3.05252 2.75,-1.23217 5.84375,-2.5917 6.875,-3.0212 9.75293,-4.06195 14.54253,-8.11647 18.40704,-15.58202 4.77199,-9.21865 22.78676,-36.45414 28.23596,-42.68833 8.87926,-10.15837 19.607,-15.70895 19.607,-10.14475 0,2.55987 -9.1795,21.60668 -11.65527,24.18387 -0.83792,0.87224 -4.24216,5.42546 -7.56497,10.11827 -6.64342,9.38249 -13.25796,15.93146 -22.5781,22.35429 -7.02934,4.84415 -9.3876,9.96444 -9.80932,21.29807 -0.1539,4.13606 -0.79775,7.00152 -1.51734,6.75297 -1.24251,-0.42917 -1.34624,-3.1223 -0.48862,-12.68771 0.40012,-4.46288 0.12993,-5.04531 -2.51519,-5.42186 -1.6299,-0.23203 -3.30833,0.11425 -3.72983,0.76957 -1.04109,1.61855 -10.86341,6.52729 -13.06102,6.52729 -0.9731,0 -4.9347,1.39991 -8.80357,3.1109 -8.42007,3.72376 -23.06371,7.22156 -27.90205,6.66474 -2.38193,-0.27413 -4.02005,-1.5298 -5.18746,-3.9764 -1.56209,-3.27372 -2.11574,-3.51027 -6.55454,-2.80048 -4.34212,0.69434 -8.18412,2.07361 -17.02762,6.11293 -4.2988,1.96347 -6.8659,-0.9136 -6.3782,-7.14825 0.3522,-4.50129 0.1097,-5.03844 -2.1019,-4.65508 -2.2024,0.38176 -32.6692,15.18498 -48.125,23.38299 -3.0937,1.64098 -10.5131,5.28233 -16.4875,8.09191 -5.9744,2.80958 -14.6932,7.89368 -19.375,11.29799 -4.6819,3.40432 -11.2127,8.15372 -14.513,10.55422 -6.7524,4.91141 -8.3869,5.33772 -8.3467,2.17703 z m 224.66811,-83.76475 c 4.69789,-4.71082 11.05737,-12.94735 14.36659,-18.60704 6.16368,-10.54162 6.76829,-12.27972 4.71334,-13.54975 -2.10133,-1.29869 -5.81231,1.5484 -10.82416,8.30437 -2.65468,3.57849 -6.23293,8.37762 -7.95168,10.66474 -7.26691,9.67001 -13.75,19.30231 -13.75,20.42917 0,3.50648 5.89184,0.33335 13.44591,-7.24149 z m -679.97171,81.26475 c -0.7836,-3.02143 0.1571,-5.3125 2.1812,-5.3125 2.3746,0 3.3971,2.07772 2.4661,5.01119 -0.9754,3.07316 -3.8795,3.26145 -4.6473,0.30131 z m 188.9175,-10.66475 c -1.0908,-0.83751 -2.6575,-2.78837 -3.4815,-4.33525 -1.7514,-3.28791 -4.1922,-3.61005 -6.4786,-0.85507 -2.0733,2.49816 -8.6919,5.94894 -9.6234,5.01741 -1.2837,-1.28367 3.6677,-5.61379 10.0639,-8.80114 5.1475,-2.56514 6.8733,-4.32327 9.5361,-9.7153 1.7882,-3.62087 4.931,-8.93099 6.984,-11.80026 5.4884,-7.67043 16.8578,-13.48032 16.8578,-8.61452 0,4.60122 -3.4576,9.50556 -13.3611,18.95194 -9.4784,9.04084 -10.6328,10.61265 -9.9097,13.49363 1.0695,4.26096 6.1244,4.3737 14.2499,0.3178 3.2427,-1.61866 8.7084,-3.96855 12.1459,-5.22198 8.5384,-3.1134 27.707,-14.4995 33.5071,-19.90308 2.6164,-2.43757 5.3059,-4.43193 5.9767,-4.43193 2.4377,0 2.4741,3.51776 0.086,8.26755 -1.3435,2.6716 -2.797,8.27106 -3.2299,12.44325 -0.6918,6.66535 -0.4727,7.87046 1.805,9.93181 2.3361,2.11412 3.1737,2.19153 8.474,0.78318 9.879,-2.62501 18.2183,-8.00363 19.101,-12.31959 2.0562,-10.05372 14.0051,-24.79069 23.2236,-28.64243 5.1564,-2.15446 6.682,-1.4432 6.682,3.11528 0,5.12382 -5.9627,13.56531 -16.1482,22.86143 -7.9483,7.2543 -8.917,8.60208 -7.7499,10.78277 1.102,2.05913 2.4797,2.45196 7.9284,2.26069 6.8054,-0.23891 9.6017,-1.41154 17.3995,-7.29644 2.5052,-1.89062 4.9553,-3.4375 5.4446,-3.4375 3.2375,0 18.1256,-16.92965 18.1256,-20.61109 0,-2.8732 3.8063,-9.14306 6.0804,-10.01569 4.1457,-1.59087 4.5978,1.89304 1.0974,8.45739 l -3.444,6.45875 2.5442,2.54282 c 2.1439,2.14285 4.126,2.53728 12.6008,2.50766 l 10.0566,-0.0351 -0.8076,3.16018 c -0.4442,1.73809 -0.9078,4.56641 -1.0302,6.28516 -0.2493,3.49985 1.3748,3.6493 11.3758,1.0468 2.9415,-0.76547 5.6697,-1.07032 6.0626,-0.67745 1.6333,1.6333 -1.2605,3.22763 -9.542,5.25711 -11.9252,2.92244 -14.0283,1.16418 -11.1181,-9.29516 0.3423,-1.23025 -0.6789,-1.8868 -3.2509,-2.09007 -2.0625,-0.163 -7.7548,-0.63827 -12.6495,-1.05615 -9.5743,-0.8174 -10.1504,-0.54764 -21.4846,10.06025 -1.5399,1.44118 -7.0991,4.95681 -12.354,7.8125 -11.1514,6.06016 -17.2996,6.65959 -25.8247,2.51778 l -5.5047,-2.67438 -7.8534,3.92438 c -8.0084,4.00186 -14.5011,4.92376 -18.7316,2.65968 -2.8626,-1.53201 -4.9561,-8.50868 -4.9655,-16.54779 -0.01,-4.88167 -0.4071,-5.9375 -2.257,-5.9375 -1.2375,0 -2.8349,0.58488 -3.5497,1.29973 -2.9456,2.94551 -31.8895,17.45022 -34.8217,17.45022 -0.8284,0 -4.151,1.40625 -7.3836,3.125 -6.5927,3.5054 -8.0117,3.70449 -10.8533,1.52275 z m 108.3081,-26.07907 c 5.6043,-5.30033 6.8002,-7.16882 6.8002,-10.62501 0,-2.30652 -0.4219,-4.15482 -0.9375,-4.10733 -1.8892,0.174 -15.3125,16.77106 -15.3125,18.93297 0,3.61578 2.2361,2.62178 9.4498,-4.20063 z m -97.1137,2.25381 c 1.5296,-1.84303 0.6749,-3.32249 -1.9194,-3.32249 -0.9167,0 -1.6667,1.125 -1.6667,2.5 0,2.88418 1.5752,3.24546 3.5861,0.82249 z m -89.8561,17.89941 c -3.4815,-4.88929 -2.5942,-10.74109 3.3672,-22.20837 4.7193,-9.07796 21.8199,-34.99982 26.004,-39.41797 1.417,-1.49631 4.8101,-5.53306 7.5401,-8.97056 18.8803,-23.77326 55.2987,-55.15068 65.6173,-56.5347 4.1354,-0.55466 4.9377,-0.17745 7.6192,3.58238 6.1151,8.57391 2.9659,20.52545 -10.0005,37.95232 -2.5576,3.4375 -6.1115,8.25325 -7.8975,10.70167 -4.5427,6.22761 -30.255,32.42333 -31.825,32.42333 -0.7107,0 -2.8155,2.40986 -4.6773,5.35526 -1.8618,2.94539 -5.0355,6.46101 -7.0527,7.8125 -2.0172,1.35148 -3.6692,2.86993 -3.6712,3.37433 0,0.5044 -4.9255,5.9731 -10.9411,12.15266 -8.8808,9.12283 -12.4019,11.82974 -18.7252,14.3954 -10.0099,4.06155 -12.0845,3.97803 -15.3573,-0.61825 z m 17.181,-3.35861 c 3.7015,-1.71776 17.3191,-14.92459 30.2274,-29.31564 5.055,-5.63569 5.1997,-6.03281 4.3982,-12.07466 -0.9298,-7.00922 -0.8436,-7.13245 9.9956,-14.28498 5.2588,-3.47014 7.4932,-6.40415 15.3125,-20.10685 5.0354,-8.8241 9.1553,-16.79373 9.1553,-17.71027 0,-3.12753 1.5149,-5.6209 3.415,-5.6209 4.3484,0 -2.5727,16.64597 -13.7432,33.05394 -1.8456,2.71093 -3.0719,5.21267 -2.7251,5.55943 1.1369,1.13691 19.1159,-20.5411 20.8955,-25.19463 0.4641,-1.21344 2.1845,-2.71602 3.8233,-3.33906 5.7661,-2.19228 12.5715,-20.7485 9.6271,-26.25018 -2.953,-5.51769 -13.7889,-2.31781 -25.1283,7.4205 -23.219,19.94042 -30.6651,27.60136 -47.9904,49.37501 -12.4181,15.60651 -16.7361,21.60935 -25.1763,35 -3.7508,5.95084 -7.9976,16.98264 -7.9976,20.77523 0,6.1955 6.148,7.24382 15.911,2.71306 z m 42.839,-47.31207 c 0,-1.07182 -0.5717,-1.59545 -1.2704,-1.16362 -0.6987,0.43182 -0.9468,1.30877 -0.5512,1.94877 1.0715,1.7338 1.8216,1.41052 1.8216,-0.78515 z"
       id="path3500"
       inkscape:connector-curvature="0" />
  </g>
</svg>
